:SAMPLES-PER-SECOND 30
:FULLY-SPECIFIED
:DEGREES
491
root  -54.7598 5.82923 -21.1515 153.302 -58.8544 -156.391
RightUpLeg  -87.314 -3.96209 12.2779
RightLeg  160.136 14.1868 -5.83163
RightFoot  -54.3752 6.71762 13.6668
RightToes  10.0851 0.0283879 0.0971349
Spine  25.2398 2.91312 5.02809
Spine1  40.2065 2.53289 9.79833
HEad  -58.5653 -40.3657 27.7132
LeftShoulder1  -1.94126e-019 -3.10601e-018 -2.51263e-017
LeftArm  40.8836 -65.9045 -126.895
LeftForeArm  48.7574 -6.56432 -1.12382
LeftHand  -0.482236 -3.6505 6.45182
RightShoulder  -4.96962e-017 0 -2.36833e-017
RightArm  41.0859 71.2925 108.971
RightForeArm  80.335 -1.90211 -0.417833
RightHand  0.0697954 -6.09812 -14.3353
LeftUpLeg  -87.8106 15.1677 32.9789
LeftLeg  164.977 -0.841695 0.287744
LeftFoot  -52.041 -5.26923 -10.608
LeftToes  3.24838 2.03064e-006 1.83538e-008
492
root  -54.7671 5.84291 -21.0748 154.157 -59.5795 -156.968
RightUpLeg  -87.8119 -4.41664 11.1029
RightLeg  160.255 13.8797 -5.66977
RightFoot  -54.1442 6.6266 13.5543
RightToes  9.45864 0.0283967 0.0910293
Spine  25.1176 2.74059 4.87646
Spine1  39.9942 2.31757 9.55905
HEad  -58.6646 -41.2319 28.6733
LeftShoulder1  -1.94126e-019 -3.10601e-018 -2.51263e-017
LeftArm  40.7278 -65.8724 -126.829
LeftForeArm  48.7572 -6.62575 -1.135
LeftHand  -0.474522 -3.67391 6.33793
RightShoulder  -4.96962e-017 0 -2.36833e-017
RightArm  48.7247 71.045 109.357
RightForeArm  75.4845 -1.83505 -0.392447
RightHand  0.0487598 -5.98525 -13.153
LeftUpLeg  -88.9728 14.603 30.9397
LeftLeg  164.876 -1.90647 0.651868
LeftFoot  -51.8228 -5.40903 -10.9456
LeftToes  4.14904 2.03064e-006 1.83538e-008
493
root  -54.7773 5.85132 -21.0638 154.178 -59.6363 -156.951
RightUpLeg  -87.7822 -4.3749 10.986
RightLeg  160.246 13.9203 -5.68901
RightFoot  -54.113 6.66059 13.6294
RightToes  9.51573 0.0283919 0.0885531
Spine  25.166 2.75389 4.87549
Spine1  40.0581 2.28321 9.61644
HEad  -58.5831 -41.9775 29.3635
LeftShoulder1  -1.94126e-019 -3.10601e-018 -2.51263e-017
LeftArm  40.8813 -65.91 -126.933
LeftForeArm  48.8314 -6.47291 -1.10802
LeftHand  -0.470547 -3.77072 6.22671
RightShoulder  -4.96962e-017 0 -2.36833e-017
RightArm  49.7082 71.0056 110.077
RightForeArm  77.1949 -2.09917 -0.443732
RightHand  0.0404279 -5.9443 -12.5045
LeftUpLeg  -88.9586 14.5639 30.8894
LeftLeg  164.864 -1.89831 0.649542
LeftFoot  -51.7364 -5.37983 -10.907
LeftToes  3.18264 2.03064e-006 1.83538e-008
494
root  -54.8002 5.85478 -21.0101 154.27 -60.0842 -156.932
RightUpLeg  -87.8012 -4.81974 10.2752
RightLeg  160.313 13.6387 -5.55307
RightFoot  -54.0737 6.61538 13.5521
RightToes  9.04071 0.028374 0.0869591
Spine  25.173 2.58369 4.95018
Spine1  40.0781 1.94513 9.72953
HEad  -58.625 -42.7474 29.6088
LeftShoulder1  -1.94126e-019 -3.10601e-018 -2.51263e-017
LeftArm  41.1074 -66.0055 -126.988
LeftForeArm  48.9452 -6.39128 -1.09308
LeftHand  -0.479747 -3.84525 6.29662
RightShoulder  -4.96962e-017 0 -2.36833e-017
RightArm  52.3824 71.0927 111.104
RightForeArm  76.6826 -2.1896 -0.45765
RightHand  0.0650623 -6.17423 -12.5779
LeftUpLeg  -89.5849 14.0753 29.8363
LeftLeg  164.862 -2.49309 0.852146
LeftFoot  -51.6315 -5.45109 -11.079
LeftToes  3.34001 2.03064e-006 1.83538e-008
495
root  -54.8295 5.84108 -20.9972 154.349 -60.1551 -156.992
RightUpLeg  -87.7239 -4.81778 10.018
RightLeg  160.398 13.6068 -5.51644
RightFoot  -54.1234 6.65274 13.6111
RightToes  8.77593 0.0283432 0.084382
Spine  25.1625 2.55778 4.96436
Spine1  40.0647 1.88731 9.74184
HEad  -58.3967 -43.5123 29.7533
LeftShoulder1  -1.94126e-019 -3.10601e-018 -2.51263e-017
LeftArm  40.9513 -65.9622 -126.493
LeftForeArm  48.9925 -6.38242 -1.09154
LeftHand  -0.477716 -3.96598 6.19763
RightShoulder  -4.96962e-017 0 -2.36833e-017
RightArm  53.0255 71.0408 111.683
RightForeArm  76.1912 -2.02242 -0.426568
RightHand  0.0847732 -6.32538 -12.9876
LeftUpLeg  -89.536 14.0451 29.6566
LeftLeg  164.945 -2.50883 0.853454
LeftFoot  -51.7389 -5.45333 -11.0569
LeftToes  3.15167 2.03064e-006 1.83538e-008
496
root  -54.8687 5.81179 -20.9556 154.537 -60.6245 -157.087
RightUpLeg  -87.6813 -5.23779 9.22465
RightLeg  160.6 13.3536 -5.35684
RightFoot  -54.2771 6.66396 13.59
RightToes  8.4309 0.0282997 0.0786588
Spine  25.1131 2.37695 5.0106
Spine1  40.0034 1.62516 9.71762
HEad  -58.3779 -43.9837 29.6994
LeftShoulder1  -1.94126e-019 -3.10601e-018 -2.51263e-017
LeftArm  40.8909 -65.973 -126.1
LeftForeArm  48.8695 -6.44341 -1.10298
LeftHand  -0.465066 -3.92966 6.06214
RightShoulder  -4.96962e-017 0 -2.36833e-017
RightArm  53.6769 71.1187 112.03
RightForeArm  75.5738 -1.79326 -0.384627
RightHand  0.0861349 -6.29963 -13.4487
LeftUpLeg  -90.0679 13.5649 28.5831
LeftLeg  165.05 -3.14046 1.06091
LeftFoot  -51.975 -5.62218 -11.3425
LeftToes  4.21373 2.03064e-006 1.83538e-008
497
root  -54.9204 5.77095 -20.9018 154.868 -61.2203 -157.346
RightUpLeg  -87.5961 -5.79701 8.17984
RightLeg  160.876 12.96 -5.12237
RightFoot  -54.4918 6.63509 13.4743
RightToes  7.73974 0.028244 0.074309
Spine  25.0192 2.15832 4.98829
Spine1  39.8463 1.34331 9.57715
HEad  -58.45 -44.3739 29.6776
LeftShoulder1  -1.94126e-019 -3.10601e-018 -2.51263e-017
LeftArm  40.868 -65.9298 -125.844
LeftForeArm  48.9169 -6.31848 -1.08064
LeftHand  -0.469972 -3.99116 6.08682
RightShoulder  -4.96962e-017 0 -2.36833e-017
RightArm  53.8965 71.0986 112.16
RightForeArm  75.247 -1.65647 -0.359516
RightHand  0.0971645 -6.38626 -13.5745
LeftUpLeg  -90.696 12.8916 27.1803
LeftLeg  165.193 -3.93542 1.31743
LeftFoot  -52.2073 -5.83744 -11.7198
LeftToes  5.62075 2.03064e-006 1.83538e-008
